<?xml version="1.0" encoding="UTF-8" standalone="no"?>
<svg
   width="36"
   height="36"
   viewBox="0 0 36 36"
   version="1.1"
   id="svg2"
   sodipodi:docname="heizbetrieb-evulock.svg"
   xml:space="preserve"
   inkscape:version="1.4.2 (f4327f4, 2025-05-13)"
   xmlns:inkscape="http://www.inkscape.org/namespaces/inkscape"
   xmlns:sodipodi="http://sodipodi.sourceforge.net/DTD/sodipodi-0.dtd"
   xmlns="http://www.w3.org/2000/svg"
   xmlns:svg="http://www.w3.org/2000/svg"><defs
     id="defs2" /><sodipodi:namedview
     id="namedview2"
     pagecolor="#ffffff"
     bordercolor="#000000"
     borderopacity="0.25"
     inkscape:showpageshadow="2"
     inkscape:pageopacity="0.0"
     inkscape:pagecheckerboard="0"
     inkscape:deskcolor="#d1d1d1"
     showgrid="true"
     inkscape:zoom="23.275598"
     inkscape:cx="18.001686"
     inkscape:cy="18.023167"
     inkscape:window-width="2560"
     inkscape:window-height="1387"
     inkscape:window-x="-8"
     inkscape:window-y="-8"
     inkscape:window-maximized="1"
     inkscape:current-layer="svg2"><inkscape:grid
       id="grid2"
       units="px"
       originx="0"
       originy="0"
       spacingx="1"
       spacingy="1"
       empcolor="#0099e5"
       empopacity="0.30196078"
       color="#0099e5"
       opacity="0.14901961"
       empspacing="1"
       enabled="true"
       visible="true" /></sodipodi:namedview><path
     fill="#7f7f7f"
     d="m 27.776398,2.29 a 0.49,0.49 0 0 0 -0.45,-0.29 h -13.93 a 0.5,0.5 0 0 0 -0.42,0.23 l -10.7100003,17 a 0.49,0.49 0 0 0 0.41,0.77 H 10.346398 L 3.5763977,33.25 a 0.52,0.52 0 0 0 0.46,0.75 h 3 a 0.5,0.5 0 0 0 0.37,-0.16 L 24.976398,14.85 a 0.5,0.5 0 0 0 -0.37,-0.85 h -6.74 l 9.83,-11.18 a 0.49,0.49 0 0 0 0.08,-0.53"
     class="clr-i-solid clr-i-solid-path-1"
     id="path1" /><path
     fill="none"
     d="M0 0h36v36H0z"
     id="path2" /><path
     fill="#7f7f7f"
     d="m 22.426955,34.001265 q -0.669921,0 -1.14658,-0.474961 -0.476659,-0.474959 -0.477471,-1.143302 v -8.091321 q 0,-0.667534 0.477471,-1.142494 0.477471,-0.474961 1.14658,-0.47577 h 0.812025 v -1.618264 q 0,-1.678949 1.187993,-2.8619 1.187993,-1.182951 2.872134,-1.183761 1.68414,-8.09e-4 2.872945,1.183761 1.188805,1.184569 1.187181,2.8619 v 1.618264 h 0.812026 q 0.669921,0 1.147391,0.47577 0.477471,0.475769 0.476659,1.142494 v 8.091321 q 0,0.667534 -0.476659,1.143302 -0.476658,0.47577 -1.147391,0.474961 z m 4.872152,-4.045659 q 0.669921,0 1.147391,-0.474961 0.477471,-0.474961 0.476659,-1.143304 -8.12e-4,-0.668343 -0.476659,-1.142494 -0.475846,-0.474152 -1.147391,-0.47577 -0.671545,-0.0016 -1.14658,0.47577 -0.475035,0.477387 -0.477471,1.142494 -0.0024,0.665107 0.477471,1.143304 0.479907,0.478197 1.14658,0.474961 m -2.436076,-7.282189 h 4.872152 v -1.618264 q 0,-1.011415 -0.710523,-1.719406 -0.710522,-0.70799 -1.725553,-0.70799 -1.015032,0 -1.725554,0.70799 -0.710522,0.707991 -0.710522,1.719406 z"
     id="path1-0"
     style="stroke-width:0.810577" /></svg>
