<?xml version="1.0" encoding="UTF-8" standalone="no"?>
<svg
   width="24"
   height="24"
   viewBox="0 0 24 24"
   version="1.1"
   id="svg1"
   sodipodi:docname="betrieb-abtauen.svg"
   xml:space="preserve"
   inkscape:version="1.4.2 (f4327f4, 2025-05-13)"
   xmlns:inkscape="http://www.inkscape.org/namespaces/inkscape"
   xmlns:sodipodi="http://sodipodi.sourceforge.net/DTD/sodipodi-0.dtd"
   xmlns="http://www.w3.org/2000/svg"
   xmlns:svg="http://www.w3.org/2000/svg"><defs
     id="defs1" /><sodipodi:namedview
     id="namedview1"
     pagecolor="#ffffff"
     bordercolor="#000000"
     borderopacity="0.25"
     inkscape:showpageshadow="2"
     inkscape:pageopacity="0.0"
     inkscape:pagecheckerboard="0"
     inkscape:deskcolor="#d1d1d1"
     showgrid="true"
     inkscape:zoom="98.75"
     inkscape:cx="14.379747"
     inkscape:cy="12.01519"
     inkscape:window-width="2560"
     inkscape:window-height="1387"
     inkscape:window-x="-8"
     inkscape:window-y="-8"
     inkscape:window-maximized="1"
     inkscape:current-layer="svg1"><inkscape:grid
       id="grid1"
       units="px"
       originx="0"
       originy="0"
       spacingx="1"
       spacingy="1"
       empcolor="#0099e5"
       empopacity="0.30196078"
       color="#0099e5"
       opacity="0.14901961"
       empspacing="1"
       enabled="true"
       visible="true" /></sodipodi:namedview><path
     d="M 10.501953,2 C 10.26165,2.0005667 10.059708,2.081483 9.8964844,2.2441406 9.73326,2.4067982 9.6503906,2.6087402 9.6503906,2.8496094 v 2.6777343 l -2.1875,-2.1249999 C 7.3076008,3.2464872 7.1129744,3.1679688 6.8789062,3.1679688 c -0.2340682,0 -0.4300809,0.078518 -0.5859375,0.234375 -0.1700253,0.1705921 -0.2539062,0.3739205 -0.2539062,0.6074218 0,0.2335016 0.076565,0.4281279 0.2324219,0.5839844 L 9.6503906,7.9511719 V 9.6503906 H 7.9511719 L 4.59375,6.2929687 C 4.4242913,6.1371121 4.2223494,6.0585937 3.9882813,6.0585937 c -0.2340682,0 -0.430081,0.078518 -0.5859375,0.234375 -0.1700254,0.1705922 -0.2539063,0.3719673 -0.2539063,0.6054688 0,0.2335015 0.076565,0.4281278 0.2324219,0.5839844 L 5.5273437,9.6503906 H 2.8496094 c -0.2403024,0 -0.4422444,0.08287 -0.6054688,0.2460938 C 2.0809163,10.059709 2,10.26165 2,10.501953 c 0,0.240303 0.078518,0.442245 0.234375,0.605469 0.1558565,0.163224 0.3528808,0.24414 0.59375,0.244141 H 5.5273437 L 3.3808594,13.541016 C 3.2250028,13.697438 3.1484375,13.891498 3.1484375,14.125 c 0,0.233501 0.076565,0.428128 0.2324219,0.583984 0.170592,0.170026 0.3739205,0.25586 0.6074219,0.25586 0.2335013,0 0.4281279,-0.07852 0.5839843,-0.234375 l 3.3789063,-3.378906 h 1.6992187 v 1.699218 l -3.3574219,3.359375 c -0.1700253,0.170592 -0.2539062,0.371967 -0.2539062,0.605469 0,0.233501 0.083881,0.428128 0.2539062,0.583984 0.1564233,0.170026 0.3524362,0.25586 0.5859375,0.25586 0.2335015,0 0.4281279,-0.07852 0.5839844,-0.234375 l 2.1875,-2.146485 v 2.677735 c 0,0.240303 0.082869,0.442245 0.2460938,0.605468 0.1632236,0.163224 0.3651656,0.244141 0.6054686,0.244141 0.240302,0 0.442244,-0.07657 0.605469,-0.232422 0.163225,-0.155856 0.244139,-0.354834 0.244141,-0.595703 v -2.699219 l 2.167968,2.146485 c 0.156423,0.155856 0.26947,0.214122 0.502972,0.214122 0.161783,0 0.133041,-0.0788 0.257535,-0.153788 0.05766,-0.351568 0.212197,-0.775806 0.364726,-1.160008 -0.03725,-0.07291 -0.0064,-0.160355 -0.06743,-0.221425 l -3.225775,-3.249214 v -1.699218 h 1.699218 l 2.778447,2.776493 c 0.328164,-0.504657 0.699115,-0.989152 1.010848,-1.402705 l -1.365467,-1.373788 h 2.677735 c 0.240868,0.0011 0.442811,-0.08035 0.605468,-0.244141 0.162657,-0.163791 0.243574,-0.365166 0.244141,-0.605469 5.67e-4,-0.240303 -0.08092,-0.442244 -0.244141,-0.6054686 -0.163224,-0.1632242 -0.3646,-0.2460938 -0.605468,-0.2460938 h -2.677735 l 2.125,-2.1679687 c 0.155856,-0.1564234 0.234375,-0.3504829 0.234375,-0.5839844 0,-0.2335014 -0.07852,-0.4281278 -0.234375,-0.5839844 -0.169458,-0.1700254 -0.3714,-0.2558594 -0.605468,-0.2558594 -0.234068,0 -0.428128,0.078518 -0.583985,0.234375 L 13.050781,9.6503906 H 11.351563 V 7.9511719 L 14.708984,4.59375 c 0.155856,-0.1552897 0.234375,-0.3499161 0.234375,-0.5839844 0,-0.2340681 -0.07852,-0.4373966 -0.234375,-0.6074218 -0.169458,-0.1558566 -0.3714,-0.234375 -0.605468,-0.234375 -0.234068,0 -0.428127,0.078518 -0.583985,0.234375 L 11.351563,5.5273437 V 2.8496094 C 11.352695,2.6098737 11.271213,2.4079317 11.107422,2.2441406 10.943631,2.0803495 10.742255,1.9994332 10.501953,2 Z"
     style="display:inline;mix-blend-mode:exclusion;fill:#7f7f7f;stroke-width:0.850126"
     id="path4"
     sodipodi:nodetypes="sssccscscccccscsccsssscccscscccccscsccsssscccsccccccccccssssccscscccccscscccss" /><path
     d="m 18.251953,11.494141 c 0,0 -3.761719,4.232632 -3.761719,6.740234 a 3.7614014,3.7614014 0 0 0 3.761719,3.761719 3.7614014,3.7614014 0 0 0 3.759766,-3.761719 c 0,-2.507602 -3.759766,-6.740234 -3.759766,-6.740234 z"
     style="display:inline;opacity:1;mix-blend-mode:lighten;fill:#7f7f7f;stroke-width:0.6269"
     id="path3" /></svg>
