<?xml version="1.0" encoding="UTF-8" standalone="no"?>
<svg
   width="24"
   height="24"
   viewBox="0 0 24 24"
   version="1.1"
   id="svg1"
   xmlns="http://www.w3.org/2000/svg"
   xmlns:svg="http://www.w3.org/2000/svg">
  <defs
     id="defs1" />
  <path
     fill="currentColor"
     d="M 9.1138159,20.764385 Q 8.9852988,20.871483 8.8464999,20.935741 8.7077013,21 8.5354883,21 8.3632752,21 8.1927758,20.924603 8.0222763,20.849207 7.8929023,20.721546 7.0147016,19.779087 6.5965923,18.793788 6.1784831,17.80849 6.1801966,16.716094 q 0,-0.792523 0.2356149,-1.670724 0.2356148,-0.8782 0.8139422,-2.27047 0.4926492,-1.220913 0.6854249,-1.87378 0.1927758,-0.652868 0.1927758,-1.2106323 0,-0.7282641 -0.3212929,-1.3597119 Q 7.4653685,7.6993281 6.7799435,7.0558854 6.6514263,6.9273682 6.5768863,6.7560119 6.5023464,6.5846557 6.5014896,6.4132994 6.5006328,6.2419432 6.5657482,6.1031446 6.6308636,5.9643461 6.7371044,5.8349721 6.8656216,5.7064549 7.0258397,5.6421963 q 0.1602181,-0.064259 0.3315744,-0.064259 0.1713562,0 0.3212929,0.064259 0.1499367,0.064259 0.2784539,0.1713563 0.9424597,0.8782007 1.4025513,1.8420796 0.4600915,0.9638789 0.4609483,2.0348555 0,0.7496833 -0.2253335,1.5747643 -0.2253335,0.82508 -0.7813848,2.152234 -0.5354883,1.285172 -0.7282641,1.970597 -0.1927758,0.685425 -0.1927758,1.306591 0,0.749684 0.3110116,1.446247 0.3110116,0.696563 0.9527411,1.402551 0.1070977,0.128517 0.1713563,0.278454 0.064258,0.149937 0.064258,0.321293 0,0.171356 -0.064258,0.332431 -0.064259,0.161075 -0.2141954,0.288735 m 4.1768081,0 Q 13.162107,20.871483 13.023309,20.935741 12.88451,21 12.712297,21 q -0.172213,0 -0.342712,-0.0754 -0.1705,-0.0754 -0.299874,-0.203057 -0.878201,-0.942459 -1.29631,-1.917476 -0.418109,-0.975017 -0.417252,-2.066557 0,-0.792522 0.235615,-1.692143 0.235614,-0.89962 0.813942,-2.27047 0.492649,-1.220913 0.685425,-1.863499 0.192776,-0.642586 0.192776,-1.1994938 0,-0.7282641 -0.321293,-1.3811314 Q 11.641321,7.6779085 10.955896,7.0558854 10.827378,6.9273682 10.76312,6.7671501 10.698861,6.606932 10.698861,6.434719 q 0,-0.1722131 0.05398,-0.3110116 0.05398,-0.1387986 0.160219,-0.2673158 0.128517,-0.1285172 0.299873,-0.2039139 0.171356,-0.075397 0.342712,-0.07454 0.171357,8.568e-4 0.311012,0.064259 0.139655,0.063402 0.267316,0.1713563 0.942459,0.8782007 1.403407,1.8420796 0.460949,0.9638789 0.460092,2.0348555 0,0.7496829 -0.224477,1.5747639 -0.224476,0.82508 -0.782241,2.173654 -0.535488,1.285171 -0.728264,1.970596 -0.192776,0.685425 -0.192776,1.285172 0,0.749684 0.321293,1.467667 0.321293,0.717982 0.963879,1.40255 0.107098,0.128518 0.160218,0.278454 0.05312,0.149937 0.05398,0.299874 0,0.171356 -0.06426,0.342712 -0.06426,0.171357 -0.214196,0.278454 m -8.3536169,0 Q 4.8084899,20.871483 4.6688345,20.935741 4.5291792,21 4.3586797,21 4.1881803,21 4.0159672,20.924603 3.8437542,20.849207 3.7160938,20.721546 2.837893,19.779087 2.4197838,18.80407 2.0016745,17.829053 2.0025313,16.737513 q 0,-0.792522 0.2356148,-1.692143 0.2356149,-0.89962 0.8139422,-2.27047 0.4926492,-1.220913 0.685425,-1.863499 0.1927758,-0.642586 0.1927758,-1.1994938 0,-0.7282641 -0.321293,-1.3811314 Q 3.2877032,7.6779085 2.6022782,7.0558854 2.4523415,6.9273682 2.3880829,6.7671501 2.3238243,6.606932 2.3238243,6.434719 q 0,-0.1722131 0.064259,-0.321293 0.064259,-0.1490799 0.1713562,-0.2784539 0.1285172,-0.1285172 0.2895921,-0.1927758 0.1610748,-0.064259 0.3315743,-0.064259 0.1704995,0 0.321293,0.064259 0.1507935,0.064259 0.2784539,0.1713563 0.9424593,0.8782007 1.4034077,1.8317983 0.4609483,0.9535975 0.4600915,2.0451368 0,0.7496833 -0.2141953,1.5747643 -0.2141953,0.82508 -0.7711031,2.152234 -0.5354883,1.285172 -0.7282641,1.970597 -0.1927758,0.685425 -0.1927758,1.306591 0,0.749684 0.3110116,1.467667 0.3110116,0.717982 0.9527407,1.40255 0.1070977,0.128518 0.1610749,0.278454 0.053977,0.149937 0.053121,0.299874 0,0.171356 -0.064259,0.342712 -0.064259,0.171357 -0.2141953,0.278454"
     id="path1"
     style="stroke-width:1" />
  <text
     xml:space="preserve"
     style="font-size:11.6565px;text-align:start;writing-mode:lr-tb;direction:ltr;text-anchor:start;fill:#000000;fill-opacity:1;stroke:#000000;stroke-width:0.5;stroke-linecap:round;stroke-linejoin:round;stroke-dasharray:none;stroke-opacity:1;paint-order:stroke fill markers"
     x="15.665589"
     y="9.6882925"
     id="text1"
     transform="scale(1.0028501,0.997158)"><tspan
       id="tspan1"
       x="15.665589"
       y="9.6882925"
       style="stroke-width:0.5">3</tspan></text>
</svg>
