<?xml version="1.0" encoding="UTF-8" standalone="no"?>
<svg
   version="1.0"
   width="40"
   height="80"
   viewBox="0 0 30 60.000004"
   preserveAspectRatio="xMidYMid"
   id="svg1"
   sodipodi:docname="Heizstab_full.svg"
   inkscape:version="1.4.2 (f4327f4, 2025-05-13)"
   inkscape:export-filename="heizstab-on.svg"
   inkscape:export-xdpi="36"
   inkscape:export-ydpi="36"
   xmlns:inkscape="http://www.inkscape.org/namespaces/inkscape"
   xmlns:sodipodi="http://sodipodi.sourceforge.net/DTD/sodipodi-0.dtd"
   xmlns="http://www.w3.org/2000/svg"
   xmlns:svg="http://www.w3.org/2000/svg">
  <defs
     id="defs1" />
  <sodipodi:namedview
     id="namedview1"
     pagecolor="#ffffff"
     bordercolor="#000000"
     borderopacity="0.25"
     inkscape:showpageshadow="2"
     inkscape:pageopacity="0.0"
     inkscape:pagecheckerboard="0"
     inkscape:deskcolor="#d1d1d1"
     inkscape:document-units="px"
     showgrid="true"
     inkscape:zoom="10.886506"
     inkscape:cx="16.901658"
     inkscape:cy="54.976317"
     inkscape:window-width="2560"
     inkscape:window-height="1387"
     inkscape:window-x="-8"
     inkscape:window-y="-8"
     inkscape:window-maximized="1"
     inkscape:current-layer="svg1">
    <inkscape:grid
       id="grid1"
       units="px"
       originx="0"
       originy="0"
       spacingx="0.75"
       spacingy="0.75000005"
       empcolor="#0099e5"
       empopacity="0.30196078"
       color="#0099e5"
       opacity="0.14901961"
       empspacing="1"
       enabled="true"
       visible="true" />
    <inkscape:page
       x="0"
       y="0"
       width="30"
       height="60.000004"
       id="page2"
       margin="0"
       bleed="0" />
  </sodipodi:namedview>
  <metadata
     id="metadata1">
</metadata>
  <g
     transform="matrix(0.00473963,0,0,-0.00469875,-16.944549,61.708099)"
     fill="#000000"
     stroke="none"
     id="g1"
     style="fill:#ff0000;fill-opacity:1">
    <path
       d="m 5375,12805 c -125,-17 -195,-38 -300,-90 -195,-97 -370,-279 -445,-466 -12,-30 -26,-65 -32,-79 -44,-107 -41,121 -47,-4345 l -6,-4200 -215,-3 c -188,-2 -217,-4 -227,-19 -10,-12 -13,-78 -13,-244 0,-125 3,-234 6,-243 5,-14 31,-16 178,-16 120,0 176,-4 184,-12 9,-9 12,-136 12,-507 1,-370 4,-501 13,-517 40,-70 204,-274 219,-274 10,0 19,-1 20,-2 1,-2 4,-88 7,-193 l 6,-190 30,-5 30,-5 5,-335 c 3,-184 9,-343 14,-353 21,-43 76,-48 105,-11 20,26 21,38 21,365 v 339 h 24 c 51,0 56,17 56,205 0,166 1,174 20,180 11,4 68,69 125,145 l 105,139 v 504 c 0,378 3,506 12,515 8,8 64,12 184,12 106,0 175,4 179,10 8,13 7,492 -1,499 -3,4 -99,7 -212,8 -114,1 -215,4 -224,7 -17,4 -18,208 -18,4123 1,4360 -1,4183 44,4270 25,48 106,116 162,136 159,56 334,-35 387,-203 8,-25 13,-868 17,-2955 5,-2832 6,-2922 24,-2970 10,-27 26,-68 34,-90 35,-94 57,-132 130,-231 131,-179 319,-300 554,-358 90,-22 306,-22 396,0 245,60 424,178 569,375 43,59 89,144 115,214 9,22 24,63 34,90 18,48 19,138 24,2970 4,2087 9,2930 17,2955 20,63 44,100 93,142 63,54 120,77 195,77 75,0 132,-23 194,-77 60,-51 85,-98 100,-187 9,-54 11,-1040 9,-4175 l -3,-4105 -222,-5 c -122,-3 -224,-7 -227,-11 -8,-7 -9,-487 -1,-499 4,-6 73,-10 179,-10 120,0 176,-4 184,-12 9,-9 12,-137 12,-515 v -504 l 105,-139 c 57,-76 114,-141 125,-145 19,-6 20,-14 20,-178 0,-95 4,-178 9,-185 4,-7 21,-16 37,-21 l 29,-7 5,-341 c 5,-317 6,-342 24,-362 29,-32 83,-24 102,16 5,10 11,169 14,353 l 5,335 30,5 30,5 6,190 c 3,105 6,191 7,193 1,1 10,2 20,2 15,0 179,204 219,274 9,16 12,147 13,517 0,371 3,498 12,507 8,8 64,12 184,12 147,0 173,2 178,16 3,9 6,118 6,243 0,166 -3,232 -12,244 -11,15 -40,17 -228,19 l -215,3 -6,4200 c -6,4466 -3,4238 -47,4345 -6,14 -20,49 -32,79 -94,232 -346,457 -590,526 -155,44 -370,48 -515,9 -305,-82 -559,-319 -653,-609 -56,-171 -52,49 -52,-3078 V 6222 l -21,-56 c -36,-94 -121,-165 -221,-187 -138,-30 -285,52 -337,187 l -21,56 v 2875 c 0,3127 4,2907 -52,3078 -76,234 -264,442 -497,552 -97,46 -152,61 -286,78 -127,16 -113,16 -230,0 z"
       id="path1"
       style="fill:#ff0000;fill-opacity:1" />
  </g>
</svg>
