<?xml version="1.0" encoding="UTF-8" standalone="no"?>
<svg
   width="24"
   height="24"
   viewBox="0 0 24 24"
   version="1.1"
   id="svg1"
   xmlns="http://www.w3.org/2000/svg"
   xmlns:svg="http://www.w3.org/2000/svg">
  <defs
     id="defs1" />
  <path
     fill="currentColor"
     d="m 20.7255,16.5675 c 0.08333,0.1 0.15,0.204 0.2,0.312 0.05,0.108 0.075,0.229 0.075,0.363 0,0.134 -0.02933,0.267333 -0.088,0.4 -0.05867,0.132667 -0.137667,0.249333 -0.237,0.35 -0.733333,0.683333 -1.479333,1.187333 -2.238,1.512 -0.758667,0.324667 -1.562333,0.487333 -2.411,0.488 -0.616667,0 -1.275,-0.09167 -1.975,-0.275 -0.7,-0.183333 -1.583333,-0.5 -2.65,-0.95 -0.95,-0.383333 -1.675,-0.65 -2.175,-0.8 -0.5,-0.15 -0.966667,-0.225 -1.4,-0.225 -0.566667,0 -1.104,0.125 -1.612,0.375 -0.508,0.25 -1.004333,0.641667 -1.489,1.175 -0.1,0.116667 -0.212333,0.2 -0.337,0.25 -0.1246667,0.05 -0.254,0.075 -0.388,0.075 -0.134,0 -0.259,-0.025 -0.375,-0.075 -0.116,-0.05 -0.2243333,-0.116667 -0.325,-0.2 -0.1,-0.1 -0.175,-0.212667 -0.225,-0.338 -0.05,-0.125333 -0.075,-0.254333 -0.075,-0.387 0,-0.132667 0.025,-0.257667 0.075,-0.375 0.05,-0.117333 0.1166667,-0.225667 0.2,-0.325 0.6833333,-0.733333 1.396,-1.279333 2.138,-1.638 0.742,-0.358667 1.537667,-0.537667 2.387,-0.537 0.583333,0 1.196,0.08333 1.838,0.25 0.642,0.166667 1.479333,0.466667 2.512,0.9 1,0.416667 1.766667,0.7 2.3,0.85 0.533333,0.15 1.041667,0.225 1.525,0.225 0.583333,0 1.154333,-0.121 1.713,-0.363 0.558667,-0.242 1.104333,-0.612667 1.637,-1.112 0.1,-0.08333 0.208333,-0.146 0.325,-0.188 0.116667,-0.042 0.233333,-0.06267 0.35,-0.062 0.133333,0 0.266667,0.025 0.4,0.075 0.133333,0.05 0.241667,0.133333 0.325,0.25 m 0,-4.875 c 0.08333,0.1 0.15,0.204 0.2,0.312 0.05,0.108 0.075,0.229 0.075,0.363 0,0.134 -0.02933,0.267333 -0.088,0.4 -0.05867,0.132667 -0.137667,0.249333 -0.237,0.35 -0.733333,0.683333 -1.483333,1.187667 -2.25,1.513 -0.766667,0.325333 -1.575,0.487333 -2.425,0.486 -0.616667,0 -1.266667,-0.09167 -1.95,-0.275 -0.683333,-0.183333 -1.566667,-0.5 -2.65,-0.95 -0.95,-0.383333 -1.679,-0.65 -2.187,-0.8 -0.508,-0.15 -0.979,-0.225 -1.413,-0.225 -0.566667,0 -1.095667,0.125 -1.587,0.375 -0.491333,0.25 -0.987333,0.642 -1.488,1.176 -0.1,0.1 -0.216667,0.179 -0.35,0.237 -0.1333333,0.058 -0.2666667,0.08733 -0.4,0.088 -0.1333333,6.67e-4 -0.254,-0.02433 -0.362,-0.075 -0.108,-0.05067 -0.2123333,-0.117333 -0.313,-0.2 -0.1,-0.1 -0.175,-0.212333 -0.225,-0.337 -0.05,-0.124667 -0.075,-0.254 -0.075,-0.388 0,-0.134 0.025,-0.259 0.075,-0.375 0.05,-0.116 0.1166667,-0.224333 0.2,-0.325 0.6833333,-0.733333 1.4,-1.279 2.15,-1.637 0.75,-0.358 1.541667,-0.537333 2.375,-0.538 0.583333,0 1.196,0.08767 1.838,0.263 0.642,0.175333 1.479333,0.479333 2.512,0.912 1,0.416667 1.766667,0.7 2.3,0.85 0.533333,0.15 1.041667,0.225 1.525,0.225 0.583333,0 1.146,-0.121 1.688,-0.363 0.542,-0.242 1.087667,-0.612667 1.637,-1.112 0.1,-0.08333 0.208333,-0.15 0.325,-0.2 0.116667,-0.05 0.241667,-0.075 0.375,-0.075 0.133333,0 0.262667,0.025 0.388,0.075 0.125333,0.05 0.237667,0.133333 0.337,0.25"
     id="path1" />
  <path
     fill="currentColor"
     d="M 15.004882,4.6675166 13.965937,6.300142 15.004882,7.9327674 13.520677,10.233286 12.184892,9.5653932 13.298047,7.9327674 12.184892,6.300142 13.669096,3.9996244 Z m -3.19104,0 L 10.700689,6.300142 11.813842,7.9327674 10.329637,10.233286 8.9938495,9.5653932 10.032795,7.9327674 8.9938495,6.300142 10.478057,3.9996244 Z"
     id="path1-8"
     style="stroke-width:0.999995" />
</svg>
