<?xml version="1.0" encoding="UTF-8" standalone="no"?>
<svg
   width="24"
   height="24"
   viewBox="0 0 24 24"
   version="1.1"
   id="svg1"
   xmlns="http://www.w3.org/2000/svg"
   xmlns:svg="http://www.w3.org/2000/svg">
  <defs
     id="defs1" />
  <path
     fill="white"
     d="M 21,13 Q 20.575,13 20.288,12.712 20.001,12.424 20,12 20,9.125 18.188,6.925 16.376,4.725 13.55,4.15 L 14.3,4.9 q 0.275,0.275 0.275,0.7 0,0.425 -0.275,0.7 -0.275,0.275 -0.7,0.275 -0.425,0 -0.7,-0.275 L 9.675,3.075 Q 9.475,2.875 9.55,2.575 9.625,2.275 9.925,2.2 10.425,2.075 10.95,2.038 11.475,2.001 12,2 q 2.075,0 3.9,0.788 1.825,0.788 3.175,2.137 1.35,1.349 2.138,3.175 Q 22.001,9.926 22,12 22,12.425 21.712,12.713 21.424,13.001 21,13 m -9,9 Q 9.925,22 8.1,21.212 6.275,20.424 4.925,19.075 3.575,17.726 2.788,15.9 2.001,14.074 2,12 2,11.575 2.288,11.288 2.576,11.001 3,11 3.424,10.999 3.713,11.288 4.002,11.577 4,12 q 0,2.875 1.813,5.075 1.813,2.2 4.637,2.775 L 9.7,19.1 q -0.275,-0.275 -0.275,-0.7 0,-0.425 0.275,-0.7 0.275,-0.275 0.7,-0.275 0.425,0 0.7,0.275 l 3.225,3.225 q 0.2,0.2 0.125,0.5 -0.075,0.3 -0.375,0.375 -0.5,0.125 -1.025,0.163 Q 12.525,22.001 12,22"
     id="path1"
     style="fill-opacity:1" />
  <path
     fill="white"
     d="m 16.455874,13.252987 q 0.125,0.275 0.013,0.562 -0.112,0.287 -0.388,0.413 l -0.275,0.125 q -0.425,0.2 -0.887,0.288 -0.462,0.088 -0.938,0.087 -0.55,0 -1.087,-0.125 -0.537,-0.125 -1.038,-0.375 -0.425,-0.2 -0.862,-0.35 -0.437,-0.15 -0.913,-0.15 -0.3750004,0 -0.7250004,0.088 -0.35,0.088 -0.7,0.237 l -0.05,0.025 q -0.275,0.125 -0.575,0.013 -0.3,-0.112 -0.425,-0.388 -0.125,-0.276 -0.012,-0.562 0.113,-0.286 0.387,-0.413 l 0.225,-0.125 q 0.425,-0.2 0.9,-0.288 0.475,-0.088 0.9750004,-0.087 0.55,0 1.075,0.125 0.525,0.125 1.025,0.375 0.425,0.2 0.875,0.35 0.45,0.15 0.925,0.15 0.35,0 0.688,-0.075 0.338,-0.075 0.662,-0.225 l 0.125,-0.05 q 0.275,-0.125 0.575,-0.013 0.3,0.112 0.425,0.388 m 0,-3 q 0.125,0.275 0.013,0.562 -0.112,0.287 -0.388,0.413 l -0.275,0.125 q -0.425,0.2 -0.887,0.288 -0.462,0.088 -0.938,0.087 -0.55,0 -1.087,-0.125 -0.537,-0.125 -1.038,-0.375 -0.425,-0.2 -0.862,-0.35 -0.437,-0.15 -0.913,-0.15 -0.3750004,0 -0.7250004,0.088 -0.35,0.088 -0.7,0.237 l -0.05,0.025 q -0.275,0.125 -0.575,0.012 -0.3,-0.113 -0.425,-0.387 -0.125,-0.274 -0.012,-0.563 0.113,-0.2889999 0.387,-0.4119999 l 0.225,-0.125 q 0.45,-0.2 0.913,-0.288 0.463,-0.088 0.9620004,-0.087 0.55,0 1.075,0.125 0.525,0.125 1.025,0.375 0.425,0.2 0.875,0.3499999 0.45,0.15 0.925,0.15 0.35,0 0.688,-0.075 0.338,-0.075 0.662,-0.2249999 l 0.125,-0.05 q 0.275,-0.125 0.575,-0.013 0.3,0.112 0.425,0.3879999"
     id="path1-5"
     style="fill-opacity:1" />
</svg>
